# xmcd CD database file
#
# Track frame offsets:
#	150
#	17927
#	35733
#	53792
#	70094
#
# Disc length: 1178 seconds
#
# Revision: 0
# Processed by: cddbd v1.5.2PL0 Copyright (c) Steve Scherf et al.
# Submitted via: CDex 1.79
#
DISCID=40049805
DTITLE=Keith Urban - Ripcord  (Raw - One Take)
DYEAR=2016
DGENRE=Country
TTITLE0=Stupid Boy
TTITLE1=Blue Ain't a Colour
TTITLE2=Wasted Time
TTITLE3=John Cougar, John Deere, John 3:16
TTITLE4=Gone Tomorrow (Here Today)
EXTD=YEAR: 2016
EXTT0=
EXTT1=
EXTT2=
EXTT3=
EXTT4=
PLAYORDER=
